<!-- icon666.com - MILLIONS OF FREE VECTOR ICONS --><svg id="Capa_1" enable-background="new 0 0 512 512" viewBox="0 0 512 512" xmlns="http://www.w3.org/2000/svg"><g><g><path d="m239.902 0c-46.892 0-90.172 24.324-114.81 63.974-69.854 5.247-125.092 63.98-125.092 135.423 0 74.884 60.687 135.807 135.281 135.807h120.719l28.529-178.155-28.529-156.092c-5.28-.632-10.651-.957-16.098-.957z" fill="#9de1f7"></path><path d="m403.796 117.982c-10.152 0-19.982 1.414-29.306 4.05-6.362-63.111-55.945-113.598-118.49-121.075v334.247h147.799c59.663-.002 108.201-48.724 108.201-108.611 0-59.888-48.54-108.611-108.204-108.611z" fill="#2fbfef"></path></g><g><g fill="#9de1f7"><path d="m120.946 422.529h30.012v89.471h-30.012z"></path><path d="m120.946 366.603h30.012v25.574h-30.012z"></path><path d="m180.97 366.603h30.012v89.471h-30.012z"></path><path d="m180.97 486.426h30.012v25.574h-30.012z"></path><path d="m240.994 512h15.006l4.767-40.86-4.767-48.611h-15.006z"></path><path d="m240.994 366.603v25.574h15.006l4.767-12.787-4.767-12.787z"></path></g><path d="m301.018 366.603h30.012v89.471h-30.012z" fill="#2fbfef"></path><path d="m301.018 486.426h30.012v25.574h-30.012z" fill="#2fbfef"></path><path d="m361.042 422.529h30.012v89.471h-30.012z" fill="#2fbfef"></path><path d="m361.042 366.603h30.012v25.574h-30.012z" fill="#2fbfef"></path><path d="m256 422.529h15.006v89.471h-15.006z" fill="#2fbfef"></path><path d="m256 366.603h15.006v25.574h-15.006z" fill="#2fbfef"></path></g></g></svg>