<svg width="0" height="0" style="position:absolute"><symbol viewBox="0 0 47.834 47.834" style="enable-background:new 0 0 47.834 47.834" xml:space="preserve" id="bell" xmlns="http://www.w3.org/2000/svg"><path d="M46.878 41.834H.956l.005-1.005c.021-4.065 2.87-7.548 6.759-8.437V20.697C7.72 11.766 14.985 4.5 23.916 4.5c8.932 0 16.198 7.266 16.198 16.197v11.695c3.889.89 6.737 4.372 6.759 8.437l.005 1.005zm-43.836-2h41.75a6.72 6.72 0 0 0-5.8-5.61l-.878-.107v-13.42c0-7.828-6.369-14.197-14.198-14.197-7.828 0-14.196 6.369-14.196 14.197v13.419l-.878.107a6.718 6.718 0 0 0-5.8 5.611z"/><path d="M21.125 5.988h-2V4.792A4.797 4.797 0 0 1 23.917 0a4.796 4.796 0 0 1 4.791 4.792v1.176h-2V4.792A2.795 2.795 0 0 0 23.917 2a2.796 2.796 0 0 0-2.792 2.792v1.196zM23.903 47.834c-3.941 0-7.375-2.799-8.164-6.656l1.959-.4a6.353 6.353 0 0 0 6.205 5.057 6.327 6.327 0 0 0 6.228-5.18l1.967.361a8.325 8.325 0 0 1-8.195 6.818zM8.72 32.231h3.682v2H8.72zM18.167 32.231h20.947v2H18.167z"/></symbol><symbol viewBox="0 0 512.006 512.006" id="blizzard" xmlns="http://www.w3.org/2000/svg"><path d="M463.364 465.003c-12.958 0-23.5 10.542-23.5 23.5s10.542 23.5 23.5 23.5 23.5-10.542 23.5-23.5-10.542-23.5-23.5-23.5zm0 32c-4.687 0-8.5-3.813-8.5-8.5s3.813-8.5 8.5-8.5 8.5 3.813 8.5 8.5-3.813 8.5-8.5 8.5zM393.005 360.23c0-12.958-10.542-23.5-23.5-23.5s-23.5 10.542-23.5 23.5 10.542 23.5 23.5 23.5 23.5-10.542 23.5-23.5zm-32 0c0-4.687 3.813-8.5 8.5-8.5s8.5 3.813 8.5 8.5-3.813 8.5-8.5 8.5-8.5-3.813-8.5-8.5zM470.864 283.461c0-12.958-10.542-23.5-23.5-23.5s-23.5 10.542-23.5 23.5 10.542 23.5 23.5 23.5 23.5-10.542 23.5-23.5zm-32 0c0-4.687 3.813-8.5 8.5-8.5s8.5 3.813 8.5 8.5-3.813 8.5-8.5 8.5-8.5-3.813-8.5-8.5zM285.406 303.18H47.974c-4.143 0-7.5 3.358-7.5 7.5s3.357 7.5 7.5 7.5h237.432c13.967 0 25.33-11.363 25.33-25.33s-11.363-25.33-25.33-25.33h-9.334c-4.143 0-7.5 3.358-7.5 7.5s3.357 7.5 7.5 7.5h9.334c5.696 0 10.33 4.634 10.33 10.33s-4.634 10.33-10.33 10.33zM373.85 425.816H110.353c-4.143 0-7.5 3.358-7.5 7.5s3.357 7.5 7.5 7.5H373.85c5.696 0 10.33 4.634 10.33 10.33s-4.634 10.33-10.33 10.33h-9.335c-4.143 0-7.5 3.358-7.5 7.5s3.357 7.5 7.5 7.5h9.335c13.967 0 25.33-11.363 25.33-25.33s-11.363-25.33-25.33-25.33zM304.811 366.199a7.5 7.5 0 0 0-7.5-7.5H7.505c-4.143 0-7.5 3.358-7.5 7.5s3.357 7.5 7.5 7.5h289.807a7.5 7.5 0 0 0 7.499-7.5zM511.966 184.884c-1.084-28.732-24.398-51.566-53.078-51.983a53.69 53.69 0 0 0-16.694 2.384c12.196-10.63 19.124-26.323 18.503-42.905-1.088-28.735-24.402-51.566-53.077-51.976a53.56 53.56 0 0 0-19.256 3.247 78.87 78.87 0 0 0-6.145-10.341 7.501 7.501 0 0 0-12.271 8.627 63.737 63.737 0 0 1 5.442 9.337c3.057 6.425 10.602 9.426 17.177 6.824 4.719-1.863 9.707-2.768 14.838-2.697 20.348.291 37.53 17.133 38.302 37.542.452 12.049-4.6 23.447-13.485 31.133-14.612-19.551-37.881-31.574-62.716-31.574-29.606 0-56.986 17.085-70.13 43.645a53.381 53.381 0 0 0-13.411-3.017 62.09 62.09 0 0 1-8.002-5.657c-9.48-16.69-27.002-27.164-46.079-27.439a53.432 53.432 0 0 0-19.247 3.247 78.223 78.223 0 0 0-18.708-24.245c6.041-13.915 19.879-23.419 35.143-23.633 5.128-.063 10.117.833 14.826 2.696 6.577 2.599 14.122-.397 17.184-6.833 10.44-22.028 32.874-36.262 57.152-36.262 10.645 0 21.166 2.703 30.428 7.816a7.496 7.496 0 0 0 10.19-2.94 7.5 7.5 0 0 0-2.94-10.191C344.436 3.353 331.408.003 318.234.003c-29.607 0-56.99 17.092-70.131 43.647-6.149-2.25-12.601-3.343-19.244-3.246-20.074.282-38.361 12.123-47.325 29.766-11.686-6.761-25.111-10.537-39.028-10.537-29.606 0-56.988 17.089-70.132 43.65-3.959-1.436-12.858-4.146-21.362-3.161-4.114.478-7.063 4.2-6.586 8.314s4.205 7.059 8.314 6.586c4.031-.47 10.091.593 15.429 2.705 6.586 2.602 14.133-.398 17.185-6.833 10.439-22.028 32.873-36.262 57.152-36.262s46.713 14.234 57.153 36.264c3.051 6.434 10.6 9.435 17.186 6.831 4.707-1.862 9.697-2.758 14.822-2.695 13.888.2 26.647 7.927 33.459 20.217-21.419 6.56-37.194 26.122-38.081 49.635a55.57 55.57 0 0 0 .285 8.117 38.754 38.754 0 0 1-22.189-9.765c-5.277-4.766-13.412-4.589-18.518.403-11.873 11.604-27.542 17.994-44.118 17.994s-32.245-6.39-44.115-17.991c-5.097-4.986-13.232-5.169-18.522-.413a38.718 38.718 0 0 1-25.942 9.955c-10.646 0-20.584-4.232-27.984-11.917-7.441-7.727-11.316-17.916-10.911-28.685.398-10.381 4.865-20.028 12.578-27.162a7.5 7.5 0 1 0-10.186-11.012C6.765 124.264.593 137.617.04 152.011c-.561 14.885 4.801 28.97 15.096 39.66 10.255 10.648 24.03 16.512 38.789 16.512 12.85 0 25.202-4.57 34.938-12.894 14.572 13.775 33.567 21.343 53.643 21.343 20.071 0 39.064-7.567 53.639-21.339a53.73 53.73 0 0 0 34.941 12.89l.198-.001c2.546 5.989 6.195 11.523 10.855 16.362 10.254 10.648 24.028 16.513 38.784 16.513a53.729 53.729 0 0 0 34.946-12.896c14.571 13.773 33.565 21.342 53.637 21.342 20.073 0 39.065-7.568 53.637-21.343a53.722 53.722 0 0 0 34.946 12.897c4.64 0 9.25-.594 13.703-1.764a7.5 7.5 0 0 0-3.814-14.507 38.927 38.927 0 0 1-9.889 1.271 38.752 38.752 0 0 1-25.952-9.958c-5.284-4.754-13.416-4.578-18.514.406-11.873 11.606-27.541 17.998-44.117 17.998s-32.244-6.392-44.117-17.997c-5.096-4.983-13.228-5.163-18.513-.408a38.754 38.754 0 0 1-25.953 9.959c-10.643 0-20.579-4.232-27.979-11.917-4.304-4.469-7.415-9.763-9.194-15.516a7.437 7.437 0 0 0-.235-.791 39.539 39.539 0 0 1-1.479-12.383c.77-20.409 17.954-37.254 38.307-37.551.894-.012 1.784.007 2.67.054.158.015.317.024.475.028a38.53 38.53 0 0 1 11.685 2.615c6.586 2.603 14.133-.396 17.18-6.831 10.438-22.028 32.871-36.262 57.154-36.262 22.156 0 42.772 11.849 54.141 30.656a7.806 7.806 0 0 0 .4.67 62.49 62.49 0 0 1 2.613 4.935c3.048 6.434 10.592 9.438 17.183 6.831 4.713-1.864 9.717-2.756 14.828-2.696 20.353.297 37.537 17.142 38.307 37.551.336 8.882-2.222 17.351-7.395 24.491a7.499 7.499 0 0 0 1.673 10.474 7.5 7.5 0 0 0 10.474-1.673c7.158-9.884 10.698-21.592 10.235-33.858z"/></symbol><symbol fill="none" viewBox="0 0 1440 116" id="bottom-line" xmlns="http://www.w3.org/2000/svg"><path d="M1013 70.196S765 11.016 452 58.08 0 0 0 0v115.158h1440V0c-190 112.154-427 70.196-427 70.196Z" fill="#fff"/></symbol><symbol viewBox="0 0 503.804 503.804" style="enable-background:new 0 0 503.804 503.804" xml:space="preserve" id="campfire" xmlns="http://www.w3.org/2000/svg"><path d="M470.131 344.328H369.983a72.847 72.847 0 0 0 11.177-12.59c15.948-22.662 20.984-56.236 12.59-97.364 0-2.518-1.679-5.036-4.197-5.875-2.518-.839-5.036-.839-7.554 0-7.554 4.197-30.216 12.59-42.807 4.197-7.554-5.036-11.751-15.948-10.911-33.574 0-5.875 3.357-17.626 12.59-27.698 26.859-30.216 26.02-78.059-.839-109.954-4.197-5.875-9.233-10.911-15.108-17.626-1.679-2.518-5.036-3.357-7.554-2.518s-5.036 2.518-5.875 5.036c0 0-5.036 12.59-14.269 22.662-7.554 8.393-17.626 7.554-24.341 4.197s-13.43-10.911-11.751-21.823c1.679-11.751 6.715-24.341 15.108-39.449.839-1.679.839-5.036 0-7.554-1.679-2.518-4.197-4.197-6.715-4.197-.839 0-31.056-3.357-58.754 17.626-17.626 13.43-27.698 36.092-25.18 59.593.839 11.751 2.518 21.823 5.875 30.216.839 3.357 1.679 7.554 0 11.751-.839 1.679-3.357 7.554-15.108 7.554h-1.679s-4.197.839-8.393-2.518c-4.197-4.197-6.715-11.751-6.715-22.662 0-3.357-1.679-5.875-4.197-7.554-2.518-.839-5.875-.839-8.393.839-1.679.839-28.538 20.984-28.538 50.361 0 20.144 11.751 38.61 36.931 56.236 5.036 2.518 20.984 14.269 20.984 26.02v.839c.839 3.357.839 13.43-4.197 19.305-2.518 2.518-6.715 4.197-12.59 4.197h-1.679c-1.679 0-35.252 5.036-41.128-26.859-.839-3.357-3.357-5.875-6.715-6.715-3.357 0-6.715.839-8.393 4.197-.839 2.518-29.377 51.2-11.751 92.328 5.106 11.914 13.67 21.668 25.351 29.377H33.672c-18.466 0-33.574 18.466-33.574 41.967 0 23.502 15.108 41.967 33.574 41.967h51.079a50.086 50.086 0 0 0-.718 8.393c0 27.698 22.662 50.361 50.361 50.361 20.778 0 38.721-12.752 46.391-30.816l12.561-6.471c2.345 30.497 27.4 54.074 58.557 54.074 31.015 0 55.985-23.362 58.525-53.658l12.847 6.618c7.802 17.762 25.577 30.253 46.135 30.253 27.698 0 50.361-22.662 50.361-50.361 0-2.859-.254-5.661-.718-8.393h51.079c18.466 0 33.574-18.466 33.574-41.967-.001-23.502-15.109-41.968-33.575-41.968zm-365.114-37.77c-8.393-20.144-2.518-43.646 3.357-59.593 13.43 20.144 37.77 23.502 52.039 20.984 12.59 0 20.144-5.036 24.341-10.072 10.072-11.751 9.233-28.538 8.393-31.895 0-23.502-26.02-38.61-28.538-40.289-19.305-13.43-29.377-27.698-29.377-41.967 0-10.072 5.036-18.466 10.072-25.18 2.518 7.554 5.875 13.43 10.911 17.626 8.393 7.554 17.626 6.715 20.984 6.715 19.305 0 27.698-10.911 30.216-17.626 3.357-7.554 3.357-15.948 0-24.341-2.518-7.554-4.197-15.948-5.036-26.02-1.679-17.626 5.036-34.413 18.466-44.485 12.59-9.233 25.18-12.59 34.413-13.43-5.875 11.751-9.233 22.662-10.911 32.734-2.518 16.787 5.875 31.895 20.984 39.449 15.108 6.715 32.734 4.197 43.646-8.393 5.036-5.036 9.233-10.911 11.751-15.948 1.679 2.518 4.197 4.197 5.875 6.715 21.823 26.02 21.823 63.79.839 88.131-10.072 11.751-16.787 26.02-16.787 38.61 0 23.502 5.875 39.449 19.305 47.843 15.948 10.072 36.931 5.036 49.521.839 4.197 31.895.839 57.075-11.751 74.702-11.751 17.626-29.377 21.823-32.734 22.662h-44.769c14.742-17.593 16.448-42.902 3.641-62.111l-41.967-62.112-41.967 62.112c-13.802 19.486-11.896 45.254 3.438 62.111h-52.959c-28.537-5.876-47.003-18.466-55.396-37.771zm214.032 129.259-10.072-5.036-.118-.353a58.577 58.577 0 0 0-2.815-8.445l-15.533-46.599 32.025 11.88 19.268 7.34c-12.184 8.042-20.707 21.219-22.426 36.388-.325 1.596-.329 2.988-.329 4.825zm-44.485-101.561c-10.072 10.072-22.662 9.233-22.662 9.233h-.839c-15.108 0-22.662-8.393-23.502-9.233-10.911-10.911-12.59-29.377-3.357-42.807l27.698-41.128 26.02 41.128c9.232 13.43 7.554 31.896-3.358 42.807zm-42.375 33.12c1.646-1.481 2.926-3.868 2.926-6.261h33.574c0 1.679.63 3.357 1.574 4.721l9.04 27.121c-8.158-4.253-17.466-6.662-27.401-6.662-10.349 0-20.022 2.607-28.419 7.198l8.706-26.117zm-215.303 18.92c0-13.429 7.554-25.18 16.787-25.18s16.787 11.751 16.787 25.18c0 13.43-7.554 25.18-16.787 25.18s-16.787-11.751-16.787-25.18zm73.862 25.18H60.593c3.636-6.073 5.976-13.452 6.522-21.541.014-.2.024-.401.036-.602.021-.375.044-.75.057-1.129.024-.636.038-1.272.038-1.909s-.015-1.273-.038-1.909c-.013-.378-.036-.753-.057-1.129-.012-.201-.022-.401-.036-.602-.546-8.09-2.886-15.468-6.522-21.541H202.507l-66.728 25.18h-1.385a51.215 51.215 0 0 0-2.872.088c-.731.042-1.458.094-2.18.167l-.189.02a50.231 50.231 0 0 0-5.731.951c-.312.071-.624.14-.933.217-.458.112-.913.231-1.366.356l-.128.037c-11.691 3.25-21.709 10.625-28.353 20.454a55.93 55.93 0 0 0-1.894 2.892zm43.646 58.754c-18.466 0-33.574-15.108-33.574-33.574 0-4.039.723-7.918 2.046-11.512a8.966 8.966 0 0 0 1.312-1.917c1.845-4.613 4.598-8.541 7.998-11.678 4.99-4.424 11.294-7.389 18.232-8.22.323-.037.645-.076.97-.103.296-.027.594-.05.892-.068.196-.012.396-.012.593-.021a6.696 6.696 0 0 0 3.209.786c17.626 1.679 31.056 15.948 31.056 33.574 0 3.357 0 6.715-1.679 10.911a10.47 10.47 0 0 0-.255 1.558c-5.179 11.892-17.057 20.264-30.8 20.264zm50.328-34.846a49.905 49.905 0 0 0-6.436-23.318c-.255-.469-.529-.925-.798-1.384-.023-.039-.045-.078-.069-.116-3.556-6.024-8.298-11.138-14.021-15a51.2 51.2 0 0 0-1.282-.886l51.176-19.296-15.533 46.599a58.577 58.577 0 0 0-2.815 8.445l-.118.353-10.072 5.036c-.007-.146-.024-.288-.032-.433zm67.18 51.633c-23.502 0-41.967-18.466-41.967-41.967 0-23.502 18.466-41.967 41.967-41.967s41.967 18.466 41.967 41.967c0 23.501-18.465 41.967-41.967 41.967zM369.41 470.23c-13.693 0-25.533-8.312-30.742-20.136a10.338 10.338 0 0 0-.313-2.526c-.839-1.679-1.679-3.357-1.679-5.036-.4-1.2-.606-2.207-.716-3.117a33.567 33.567 0 0 1-.123-2.759v-.002c.001-1.677.839-2.517.839-5.034 1.128-7.521 4.452-14.026 9.281-18.922 5.664-5.547 13.265-9.12 21.664-9.567l.087-.006a33.17 33.17 0 0 1 1.703-.043 32.13 32.13 0 0 1 2.654.116c10.235.849 19.278 6.559 25.192 14.763a33.327 33.327 0 0 1 5.727 18.695c0 18.466-15.108 33.574-33.574 33.574zm3.604-83.79c-.155-.012-.31-.025-.466-.036a58.044 58.044 0 0 0-2.035-.089l-69.3-25.2H443.21c-3.636 6.073-5.976 13.452-6.522 21.541-.014.2-.025.401-.036.602-.021.376-.044.75-.057 1.129-.024.636-.038 1.272-.038 1.909s.015 1.273.038 1.909c.013.378.036.753.057 1.129.012.201.022.401.036.602.546 8.09 2.886 15.468 6.522 21.541h-30.155a51.848 51.848 0 0 0-1.811-2.762c-8.426-12.552-22.339-21.136-38.23-22.275zm97.117 25.036c-9.233 0-16.787-11.751-16.787-25.18s7.554-25.18 16.787-25.18 16.787 11.751 16.787 25.18-7.554 25.18-16.787 25.18zM109.213 42.165c5.036 0 8.393-3.357 8.393-8.393s-3.357-8.393-8.393-8.393-8.393 3.357-8.393 8.393 3.357 8.393 8.393 8.393zM436.558 168.066c5.036 0 8.393-3.357 8.393-8.393s-3.357-8.393-8.393-8.393c-5.036 0-8.393 3.357-8.393 8.393s3.357 8.393 8.393 8.393zM16.886 218.427c5.036 0 8.393-3.357 8.393-8.393s-3.357-8.393-8.393-8.393c-5.036 0-8.393 3.357-8.393 8.393s3.356 8.393 8.393 8.393z"/></symbol><symbol viewBox="0 0 512 512" style="enable-background:new 0 0 512 512" xml:space="preserve" id="forest" xmlns="http://www.w3.org/2000/svg"><path d="M503.14 469.564h-12.229a40.613 40.613 0 0 0 3.477-5.85c6.907-14.352 10.197-30.427 9.513-46.49-2.184-51.264-44.105-92.233-95.437-93.271-10.529-.213-20.812 1.221-30.694 4.267L300.001 37.79c-2.093-7.82-8.939-13.073-17.036-13.073-8.095 0-14.94 5.254-17.034 13.073l-24.268 90.626a131.396 131.396 0 0 0-110.114-59.538C59.013 68.878 0 127.891 0 200.428c0 69.56 54.271 126.673 122.694 131.245v137.891H33.596a8.86 8.86 0 0 0 0 17.72H503.14a8.86 8.86 0 0 0 8.86-8.86 8.86 8.86 0 0 0-8.86-8.86zM168.435 229.427a8.859 8.859 0 0 0-12.335-2.194l-15.687 10.95v-15.114a8.86 8.86 0 0 0-17.72 0v42.996l-31.716-21.361a8.86 8.86 0 0 0-12.299 2.399 8.86 8.86 0 0 0 2.399 12.299l41.615 28.029v26.488C64.05 309.382 17.72 260.214 17.72 200.428c0-62.766 51.064-113.83 113.83-113.83a113.717 113.717 0 0 1 103.518 66.452l-37.512 140.092c-16.936 12.097-36.483 19.197-57.142 20.773V259.79l25.828-18.028c4.011-2.801 4.995-8.324 2.193-12.335zm105.672 240.137H140.413V331.662c17.768-1.172 34.848-5.864 50.533-13.839l-8.996 33.596c-1.429 5.338-.32 10.914 3.045 15.298 3.365 4.384 8.464 6.898 13.99 6.898h75.121v95.949zm8.859-221.441a8.86 8.86 0 0 0-8.86 8.86v98.914h-75.011L282.966 42.68l83.871 313.216h-75.011v-98.914a8.86 8.86 0 0 0-8.86-8.859zm8.859 221.441v-95.949h29.66c-8.169 14.517-12.562 31.016-12.562 47.857-.001 14.724 3.201 28.877 9.517 42.065 1.019 2.13 2.234 4.133 3.582 6.027h-30.197zm186.597-13.534c-3.957 8.221-12.581 13.534-21.973 13.534h-99.977c-9.416 0-18.07-5.369-22.049-13.679-5.162-10.781-7.78-22.359-7.78-34.411a79.904 79.904 0 0 1 15.949-47.857h24.356c5.526 0 10.625-2.514 13.989-6.898 3.365-4.384 4.475-9.96 3.047-15.299l-1.621-6.054c8.272-2.625 16.897-3.879 25.744-3.696 42.004.849 76.305 34.369 78.091 76.309.566 13.346-2.048 26.149-7.776 38.051z"/><circle cx="416.315" cy="442.988" r="8.86"/><circle cx="364.255" cy="427.041" r="8.86"/><circle cx="389.735" cy="384.514" r="8.86"/><circle cx="439.952" cy="370.338" r="8.86"/><circle cx="457.069" cy="409.321" r="8.86"/></symbol><symbol viewBox="0 0 512.001 512.001" id="handpan" xmlns="http://www.w3.org/2000/svg"><path d="M511.958 279.365c-.437-4.119-4.124-7.097-8.249-6.667-1.728.183-3.457.364-5.186.543.21-7.582-1.735-15.231-5.887-21.924l-7.881-12.704c-31.387-50.595-85.648-81.898-145.15-83.738-3.994-.13-8.095.387-12.187 1.515-15.83 4.361-31.352 7.383-46.524 9.068v-.085c0-13.727-11.167-24.895-24.894-24.895s-24.895 11.168-24.895 24.895v.691c-15.847-1.464-31.214-4.563-46.048-9.297-4.38-1.396-8.886-2.032-13.396-1.867-59.198 2.074-113.186 33.37-144.417 83.714l-7.88 12.704c-4.152 6.693-6.097 14.343-5.887 21.924-1.729-.179-3.457-.36-5.186-.543a7.495 7.495 0 0 0-8.249 6.667 7.5 7.5 0 0 0 6.667 8.249c3.448.366 6.897.723 10.346 1.073a39.128 39.128 0 0 0 4.613 7.642l11.42 14.789c14.434 18.691 33.268 34.075 54.464 44.487 21.197 10.413 44.883 15.917 68.5 15.917h117.341c4.143 0 7.5-3.357 7.5-7.5s-3.357-7.5-7.5-7.5h-117.34c-43.174 0-84.704-20.4-111.092-54.572l-8.805-11.402c73.015 6.816 146.43 10.224 219.844 10.224s146.828-3.408 219.843-10.224l-8.803 11.402c-26.389 34.172-67.919 54.572-111.093 54.572h-53.553c-4.143 0-7.5 3.357-7.5 7.5s3.357 7.5 7.5 7.5h53.553c23.616 0 47.303-5.504 68.5-15.917 21.196-10.412 40.03-25.796 54.465-44.487l11.42-14.789a39.128 39.128 0 0 0 4.613-7.642c3.45-.35 6.898-.708 10.346-1.073a7.5 7.5 0 0 0 6.667-8.25zM246.106 165.372c0-5.456 4.438-9.895 9.895-9.895 5.456 0 9.894 4.438 9.894 9.895v1.321c-6.669.355-13.267.443-19.789.264zM28.585 274.76c-.563-5.323.596-10.813 3.526-15.536l7.88-12.703a162.845 162.845 0 0 1 19.117-25.047c.905 5.979 2.844 11.687 5.779 16.849a7.5 7.5 0 1 0 13.04-7.413c-3.868-6.805-5.235-15.086-3.928-23.548a161.818 161.818 0 0 1 62.335-32.187c15.667 11.631 17.35 36.726 1.965 55.147-10.792 12.921-27.626 18.936-41.892 14.975a7.497 7.497 0 0 0-9.235 5.217 7.5 7.5 0 0 0 5.217 9.234 49.405 49.405 0 0 0 13.257 1.794c16.245 0 32.608-7.769 44.165-21.604 17.5-20.953 18.657-49.704 4.087-68.376a163.17 163.17 0 0 1 18.289-1.674c2.784-.101 5.577.295 8.31 1.167 49.784 15.887 101.33 13.452 150.907-.206 2.644-.729 5.238-1.058 7.739-.983 6.396.198 12.727.768 18.965 1.695a46.849 46.849 0 0 0-7.506 14.03 7.498 7.498 0 0 0 4.741 9.487 7.499 7.499 0 0 0 9.487-4.741c2.127-6.375 5.921-11.514 10.842-15.166a161.669 161.669 0 0 1 62.329 32.18c1.986 12.7-2.001 24.509-10.901 31.941-14.91 12.455-38.866 8.432-53.398-8.969-3.638-4.354-6.411-9.196-8.244-14.388a7.505 7.505 0 0 0-9.569-4.575 7.5 7.5 0 0 0-4.575 9.569c2.431 6.882 6.089 13.277 10.876 19.009 11.783 14.107 28.361 21.554 44.339 21.554 10.919 0 21.558-3.479 30.188-10.688 8.796-7.347 14.39-17.796 16.153-29.364a162.983 162.983 0 0 1 19.14 25.078l7.881 12.705c2.93 4.722 4.089 10.212 3.525 15.535-151.014 14.686-303.816 14.686-454.831.002z"/><path d="M256 187.868c-24.945 0-45.24 20.295-45.24 45.24s20.295 45.239 45.24 45.239 45.24-20.294 45.24-45.239-20.295-45.24-45.24-45.24zm0 75.479c-16.674 0-30.24-13.565-30.24-30.239 0-16.675 13.566-30.24 30.24-30.24s30.24 13.565 30.24 30.24c0 16.674-13.565 30.239-30.24 30.239z"/><path d="M256 223.325a7.5 7.5 0 0 0-7.5 7.5v4.565c0 4.143 3.358 7.5 7.5 7.5s7.5-3.357 7.5-7.5v-4.565a7.498 7.498 0 0 0-7.5-7.5zM104.562 215.75a7.463 7.463 0 0 0 4.804 1.744 7.483 7.483 0 0 0 5.76-2.692l3.77-4.514a7.5 7.5 0 0 0-11.512-9.615l-3.77 4.514a7.5 7.5 0 0 0 .948 10.563zM396.873 214.802a7.484 7.484 0 0 0 5.761 2.692 7.5 7.5 0 0 0 5.753-12.307l-3.77-4.514a7.5 7.5 0 0 0-11.513 9.615zM136.84 318.566c-5.564 1.104-11.092-.037-16.895-3.491a7.498 7.498 0 0 0-10.281 2.608 7.498 7.498 0 0 0 2.609 10.28c6.721 4.001 13.579 6.012 20.465 6.012 2.338 0 4.681-.231 7.022-.696a7.5 7.5 0 0 0-2.92-14.713zM379.262 333.975c6.887 0 13.745-2.011 20.466-6.012a7.497 7.497 0 0 0 2.608-10.28 7.497 7.497 0 0 0-10.28-2.608c-5.804 3.454-11.331 4.595-16.896 3.491a7.493 7.493 0 0 0-8.816 5.896 7.499 7.499 0 0 0 5.896 8.816c2.342.466 4.683.697 7.022.697z"/></symbol><symbol viewBox="0 0 512 512" style="enable-background:new 0 0 512 512" xml:space="preserve" id="leaves" xmlns="http://www.w3.org/2000/svg"><path d="M229.275 161.534a8.636 8.636 0 0 0-9.012 8.25c-1.356 30.681-7.629 56.634-18.646 77.139a8.637 8.637 0 0 0 3.521 11.698 8.636 8.636 0 0 0 11.697-3.52c12.258-22.81 19.219-51.258 20.69-84.555a8.64 8.64 0 0 0-8.25-9.012zM318.276 227.446a8.64 8.64 0 0 0-12.214.268c-14.908 15.579-47.061 29.356-86.011 36.855a8.64 8.64 0 0 0 3.267 16.966c42.967-8.271 77.676-23.533 95.228-41.874a8.64 8.64 0 0 0-.27-12.215zM171.109 292.65a8.638 8.638 0 0 0-11.698-3.521c-20.506 11.017-46.46 17.292-77.14 18.646a8.641 8.641 0 0 0-8.25 9.012 8.641 8.641 0 0 0 9.012 8.25c33.294-1.471 61.744-8.432 84.555-20.687a8.64 8.64 0 0 0 3.521-11.7zM187.174 300.713a8.638 8.638 0 0 0-10.117 6.85c-7.499 38.95-21.276 71.104-36.856 86.012a8.64 8.64 0 1 0 11.947 12.481c18.341-17.551 33.604-52.26 41.875-95.227a8.638 8.638 0 0 0-6.849-10.116z"/><path d="M508.858 237.293 468.252 67.896a8.64 8.64 0 0 0-12.633-5.518l-151.86 85.327a112.028 112.028 0 0 0-19.902 14.235 134.451 134.451 0 0 0-32.388-52.297l-19.598-19.598c-3.374-3.373-8.844-3.374-12.216 0l-19.6 19.598c-11.019 11.02-19.884 23.578-26.446 37.444-21.869-14.395-47.116-21.95-73.663-21.95H46.262a8.639 8.639 0 0 0-8.639 8.639v53.688c0 26.545 7.555 51.793 21.951 73.663-13.867 6.562-26.426 15.428-37.444 26.446l-19.6 19.598a8.64 8.64 0 0 0-.001 12.214l19.599 19.598a134.445 134.445 0 0 0 73.299 37.61c-4.726 12.474-7.114 25.599-7.114 39.158v26.339a8.639 8.639 0 0 0 8.639 8.639h26.338c61.268 0 111.114-49.845 111.114-111.113v-5.483l51.073 51.073a8.613 8.613 0 0 0 6.109 2.531 8.61 8.61 0 0 0 6.109-2.531 8.637 8.637 0 0 0 0-12.216l-51.073-51.074h5.482c7.317 0 14.467-.719 21.392-2.075l40.096 63.355-9.722 22.258a8.639 8.639 0 1 0 15.833 6.916l9.723-22.261 91.087-16.856c30.45-5.639 56.511-23.044 73.38-49.008 16.869-25.96 22.183-56.841 14.965-86.952zm-256.754 67.344h-22.759v.001L109.904 185.197a8.64 8.64 0 0 0-12.218 12.216l119.441 119.441v22.761c0 51.741-42.095 93.835-93.836 93.835h-17.699v-17.7c0-14.907 3.418-29.187 10.156-42.444a8.636 8.636 0 0 0-.179-8.163 8.635 8.635 0 0 0-6.897-4.368 117.129 117.129 0 0 1-74.324-34.009l-13.49-13.489 13.49-13.489c11.926-11.926 25.914-20.957 41.576-26.839a8.636 8.636 0 0 0 3.769-13.406c-16.218-20.755-24.79-45.68-24.79-72.082v-45.049h45.048c26.401 0 51.328 8.572 72.082 24.791a8.648 8.648 0 0 0 7.657 1.51 8.642 8.642 0 0 0 5.749-5.279c5.88-15.661 14.911-29.649 26.838-41.576l13.49-13.489 13.488 13.489c19.899 19.898 31.979 46.295 34.011 74.325a8.639 8.639 0 0 0 12.531 7.076c13.258-6.739 27.538-10.157 42.444-10.157h17.699v17.7c-.001 51.741-42.095 93.835-93.836 93.835zm69.836 59.444-31.098-49.137a111.256 111.256 0 0 0 35.098-21.187l17.668 20.711-21.668 49.613zm157.464-49.248c-14.262 21.951-36.295 36.664-62.036 41.432l-79.593 14.729 7.916-18.122 52.904-16.8a8.64 8.64 0 1 0-5.228-16.467l-38.483 12.221 26.055-59.655 61.227-17.818a8.637 8.637 0 0 0 5.88-10.709c-1.334-4.582-6.135-7.214-10.709-5.88l-47.395 13.792 49.73-113.86a8.639 8.639 0 1 0-15.834-6.916l-28.155 64.462-16.697-36.379a8.64 8.64 0 0 0-15.703 7.207l23.131 50.396-35.114 80.397-13.326-15.621c15.766-19.185 25.243-43.724 25.243-70.437v-26.339a8.639 8.639 0 0 0-8.639-8.639H328.24c-13.558 0-26.681 2.388-39.157 7.115-.089-.54-.202-1.074-.297-1.613 6.744-7.367 14.61-13.602 23.438-18.56L454.117 83.04l37.941 158.279c6.1 25.458 1.608 51.566-12.654 73.514z"/></symbol><symbol viewBox="0 0 512 512" id="mute" xmlns="http://www.w3.org/2000/svg"><path d="M176.674 138.923 265.592 89c.178-.1.354-.206.527-.316a20.231 20.231 0 0 1 21.161-.748 21.915 21.915 0 0 1 11.383 19.571v133.72a10.667 10.667 0 1 0 21.333 0V107.509a43.524 43.524 0 0 0-22.474-38.285A41.536 41.536 0 0 0 254.9 70.54l-88.67 49.78a10.667 10.667 0 0 0 10.444 18.6zM448.585 121.9a10.667 10.667 0 0 0-17.5 12.205 213.512 213.512 0 0 1 14.355 220.063A10.667 10.667 0 1 0 464.374 364a234.848 234.848 0 0 0-15.788-242.1zM384 256a116.647 116.647 0 0 1-8.189 43.144A10.667 10.667 0 1 0 395.64 307a138.826 138.826 0 0 0-15.187-130.249 10.666 10.666 0 1 0-17.49 12.215A116.492 116.492 0 0 1 384 256zM70.711 92.281a10.667 10.667 0 1 0-13.423 16.581l49.994 40.471H69.329a48.054 48.054 0 0 0-48 48v117.334a48.054 48.054 0 0 0 48 48h45.211l140.36 78.792a41.537 41.537 0 0 0 42.624 1.317A43.525 43.525 0 0 0 320 404.49v-82.961l121.293 98.189a10.667 10.667 0 0 0 13.423-16.581zM42.662 314.667V197.333a26.7 26.7 0 0 1 26.667-26.667h37.338v170.667H69.329a26.7 26.7 0 0 1-26.667-26.666zm256 89.824a21.918 21.918 0 0 1-11.383 19.572 20.243 20.243 0 0 1-21.161-.748 9.787 9.787 0 0 0-.527-.316L128 345.758V166.243l.1-.057L298.662 304.26z"/></symbol><symbol viewBox="0 -41 512 512" id="night" xmlns="http://www.w3.org/2000/svg"><path d="M186.89 176.98a7.459 7.459 0 0 0 5.563-2.472c25.703-28.43 39.856-65.145 39.856-103.375 0-16.781-2.68-33.29-7.965-49.063-1.063-3.168.883-5.144 1.77-5.847.695-.551 3.195-2.211 6.144-.391 16.176 9.984 30.203 22.758 41.695 37.965a7.495 7.495 0 0 0 10.504 1.46 7.499 7.499 0 0 0 1.461-10.503c-12.613-16.691-28.016-30.719-45.777-41.688-7.371-4.55-16.536-4-23.348 1.403-6.797 5.39-9.414 14.172-6.672 22.367 4.77 14.234 7.188 29.137 7.188 44.297 0 34.508-12.778 67.648-35.98 93.316a7.5 7.5 0 0 0 .534 10.594 7.473 7.473 0 0 0 5.028 1.937zM426.297 352.875h-.106a7.5 7.5 0 1 0 0 15h.106c4.144 0 7.5-3.355 7.5-7.5 0-4.14-3.36-7.5-7.5-7.5zM91 405.11h-.105a7.5 7.5 0 1 0 0 15H91a7.5 7.5 0 1 0 0-15zM68.96 415.11h-.179a7.501 7.501 0 0 0-7.496 7.43 7.5 7.5 0 0 0 7.43 7.57h.176a7.499 7.499 0 0 0 7.496-7.43 7.499 7.499 0 0 0-7.426-7.57zm0 0"/><path d="M504.5 296.344h-23.39c.609-3.52.917-7.094.917-10.696 0-32.441-25.078-59.441-56.863-62.406a89.815 89.815 0 0 0-22.168-30.539 7.5 7.5 0 0 0-10.012 11.168c8.918 7.992 15.836 18.102 20.008 29.238a7.498 7.498 0 0 0 6.934 4.864c25.972.316 47.105 21.699 47.105 47.675 0 3.622-.41 7.207-1.21 10.696H337.69c.114-1.387.188-2.778.188-4.176 0-25.414-19.379-46.621-44.137-49.45a69.836 69.836 0 0 0-14.512-20.66c7.407-12.835 18.254-22.906 31.051-29.3.13-.063.258-.121.383-.192 10.012-4.93 21.191-7.62 32.832-7.62a74.08 74.08 0 0 1 22.875 3.593 7.498 7.498 0 0 0 9.445-4.824 7.496 7.496 0 0 0-4.824-9.445 89.043 89.043 0 0 0-27.496-4.325c-9.05 0-17.867 1.36-26.223 3.914 1.582-9.32 2.403-18.8 2.403-28.332 0-25.007-5.406-49.086-16.063-71.57-1.773-3.742-6.246-5.332-9.992-3.562a7.502 7.502 0 0 0-3.562 9.988c9.699 20.46 14.617 42.379 14.617 65.148 0 11.973-1.403 23.86-4.137 35.39-13.441 7.376-24.93 18.212-33.176 31.735-10.984-6.937-23.886-10.883-37.375-10.883-34.86 0-64.16 25.668-69.289 59.504a40.51 40.51 0 0 0-32.406 34.664c-43.8-6.945-82.133-32.48-105.617-70.523-1.82-2.95-.16-5.445.39-6.145.704-.886 2.68-2.828 5.856-1.77 15.719 5.27 32.176 7.95 48.906 7.966h.145c31.953 0 62.64-9.735 88.75-28.153a7.504 7.504 0 0 0 1.804-10.453 7.504 7.504 0 0 0-10.453-1.804c-23.566 16.625-51.261 25.41-80.101 25.41h-.133c-15.11-.016-29.969-2.434-44.152-7.188-8.2-2.746-16.981-.125-22.375 6.672-5.399 6.809-5.95 15.973-1.403 23.344 17.106 27.71 41.399 49.371 69.856 63.047H7.5a7.5 7.5 0 1 0 0 15h497c4.145 0 7.5-3.356 7.5-7.5a7.5 7.5 0 0 0-7.5-7.5zM167.781 275.52a7.5 7.5 0 0 0 7.227-7.043c1.758-28.993 25.906-51.704 54.984-51.704 22.848 0 43.582 14.372 51.602 35.762a7.498 7.498 0 0 0 6.93 4.867c18.945.227 34.355 15.825 34.355 34.77 0 1.398-.094 2.793-.258 4.172H143.414c2.2-11.602 12.113-20.403 24.367-20.824zM352.352 399.168H296a7.5 7.5 0 0 0-7.5 7.5c0 4.145 3.355 7.5 7.5 7.5h56.352c4.144 0 7.5-3.355 7.5-7.5 0-4.14-3.36-7.5-7.5-7.5zM307.348 360.375c0-4.14-3.36-7.5-7.5-7.5h-17.043a7.5 7.5 0 0 0-7.5 7.5c0 4.145 3.355 7.5 7.5 7.5h17.043a7.5 7.5 0 0 0 7.5-7.5zM265 415.11h-96.059c-4.14 0-7.5 3.355-7.5 7.5s3.36 7.5 7.5 7.5H265c4.145 0 7.5-3.356 7.5-7.5s-3.355-7.5-7.5-7.5zM68.785 154.914h.04a7.499 7.499 0 0 0 7.495-7.465l.016-2.719a7.502 7.502 0 0 0-7.465-7.535h-.035a7.502 7.502 0 0 0-7.5 7.465l-.016 2.719c-.015 4.14 3.325 7.516 7.465 7.535zm0 0"/><path d="M68.785 164.844c-4.164-.04-7.515 3.32-7.535 7.465l-.016 2.714a7.505 7.505 0 0 0 7.465 7.54h.04a7.499 7.499 0 0 0 7.495-7.465l.016-2.72a7.5 7.5 0 0 0-7.465-7.534zM73.777 159.879a7.5 7.5 0 0 0 7.465 7.535l2.723.012H84a7.5 7.5 0 0 0 .035-15l-2.722-.012h-.036a7.502 7.502 0 0 0-7.5 7.465zM53.535 167.328l2.723.016h.039a7.499 7.499 0 0 0 7.496-7.465 7.497 7.497 0 0 0-7.465-7.535l-2.723-.016c-4.132-.031-7.511 3.324-7.535 7.465-.015 4.144 3.325 7.52 7.465 7.535zM426.695 72.484h.04a7.499 7.499 0 0 0 7.495-7.464l.016-2.72a7.496 7.496 0 0 0-7.465-7.53h-.039a7.496 7.496 0 0 0-7.496 7.464l-.016 2.715c-.015 4.14 3.325 7.516 7.465 7.535zM426.648 100.129a7.5 7.5 0 0 0 7.5-7.465l.012-2.715a7.5 7.5 0 0 0-7.465-7.535h-.035a7.502 7.502 0 0 0-7.5 7.465l-.012 2.715a7.495 7.495 0 0 0 7.465 7.535zM431.688 77.45a7.5 7.5 0 0 0 7.464 7.534l2.723.016h.035a7.5 7.5 0 0 0 .035-15l-2.722-.016h-.036a7.502 7.502 0 0 0-7.5 7.465zM411.45 84.902l2.722.012h.035a7.499 7.499 0 0 0 7.496-7.465 7.495 7.495 0 0 0-7.465-7.535l-2.718-.012h-.04a7.496 7.496 0 0 0-7.496 7.465c-.02 4.14 3.325 7.512 7.465 7.535zM463.297 119.46h.035a7.499 7.499 0 0 0 7.496-7.464l.016-2.715c.02-4.144-3.324-7.52-7.465-7.535-4.184-.035-7.516 3.32-7.535 7.465l-.016 2.715a7.503 7.503 0 0 0 7.469 7.535zM470.746 139.645l.012-2.72a7.502 7.502 0 0 0-7.465-7.534h-.035a7.502 7.502 0 0 0-7.5 7.464l-.012 2.72a7.5 7.5 0 0 0 7.465 7.534h.035a7.502 7.502 0 0 0 7.5-7.464zM468.285 124.422c-.02 4.144 3.32 7.52 7.461 7.539l2.723.016h.039a7.5 7.5 0 0 0 7.5-7.465 7.499 7.499 0 0 0-7.461-7.535l-2.723-.016h-.039a7.499 7.499 0 0 0-7.5 7.46zM448.078 116.875a7.499 7.499 0 0 0-7.496 7.465 7.495 7.495 0 0 0 7.465 7.535l2.723.016h.035a7.5 7.5 0 0 0 .035-15l-2.723-.016h-.039zM146.61 71.125h.1c4.145 0 7.5-3.355 7.5-7.5a7.5 7.5 0 0 0-7.5-7.5h-.1a7.5 7.5 0 0 0-7.5 7.5c0 4.145 3.355 7.5 7.5 7.5zM382.855 161.129h.176a7.501 7.501 0 0 0 7.496-7.43 7.497 7.497 0 0 0-7.43-7.57h-.175a7.499 7.499 0 0 0-7.496 7.43 7.5 7.5 0 0 0 7.43 7.57zM353.945 84.996l.106.004h.07a7.5 7.5 0 0 0 .07-15l-.105-.004h-.07a7.5 7.5 0 0 0-.07 15zM457.078 187.824h-.101a7.497 7.497 0 0 0-7.5 7.5 7.5 7.5 0 0 0 7.5 7.5h.101a7.5 7.5 0 0 0 7.5-7.5c0-4.144-3.355-7.5-7.5-7.5zM414.328 153.742h-.175a7.502 7.502 0 0 0-7.5 7.43 7.502 7.502 0 0 0 7.429 7.57h.175c4.11 0 7.462-3.312 7.5-7.43a7.502 7.502 0 0 0-7.429-7.57zM135.402 102.902h.106a7.5 7.5 0 1 0 0-15h-.106a7.5 7.5 0 1 0 0 15zm0 0"/></symbol><symbol viewBox="0 0 512 512" style="enable-background:new 0 0 512 512" xml:space="preserve" id="rain" xmlns="http://www.w3.org/2000/svg"><path d="M254.217 361.613a9.5 9.5 0 0 0-15.635 0c-6.156 8.913-36.869 54.455-36.869 75.77 0 24.64 20.045 44.686 44.686 44.686s44.686-20.045 44.686-44.686c0-21.315-30.711-66.857-36.868-75.77zm-7.816 101.455c-14.162 0-25.684-11.522-25.684-25.684 0-9.329 13.243-33.617 25.684-53.158 12.442 19.542 25.684 43.829 25.684 53.158 0 14.162-11.522 25.684-25.684 25.684zM331.854 182.933a9.5 9.5 0 0 0-15.634 0c-6.158 8.913-36.87 54.455-36.87 75.77 0 24.64 20.047 44.686 44.687 44.686 24.64 0 44.686-20.045 44.686-44.686 0-21.316-30.711-66.857-36.869-75.77zm-7.817 101.453c-14.163 0-25.685-11.522-25.685-25.684 0-9.329 13.243-33.617 25.685-53.158 12.442 19.542 25.684 43.829 25.684 53.158 0 14.162-11.522 25.684-25.684 25.684z"/><path d="M452.079 196.104c.109-2.426.165-4.857.165-7.279 0-87.615-71.281-158.894-158.894-158.894-36.324 0-70.515 11.934-98.875 34.511-24.612 19.593-42.929 46.303-52.451 76.043-11.179-3.908-23.112-5.985-35.413-5.985C47.826 134.5 0 182.326 0 241.11c0 58.785 47.826 106.61 106.61 106.61h13.564c6.421 16.815 22.711 28.794 41.756 28.794s35.334-11.979 41.756-28.794h231.588c42.308 0 76.727-34.42 76.727-76.728 0-36.489-25.182-67.208-59.922-74.888zM161.93 357.512c-14.162 0-25.684-11.522-25.684-25.684 0-9.329 13.243-33.617 25.684-53.158 12.442 19.542 25.684 43.829 25.684 53.158.001 14.164-11.522 25.684-25.684 25.684zm273.343-28.794H206.405c-2.588-22.34-30.785-64.157-36.657-72.659a9.503 9.503 0 0 0-15.636 0c-5.873 8.503-34.07 50.32-36.657 72.659h-10.843c-48.308 0-87.609-39.301-87.609-87.609 0-48.308 39.301-87.609 87.609-87.609 30.647 0 58.554 15.6 74.651 41.73 2.752 4.469 8.605 5.86 13.072 3.106 4.468-2.752 5.858-8.604 3.106-13.072-9.633-15.637-22.748-28.165-38.023-36.868 17.682-58.924 71.714-99.464 133.934-99.464 77.137 0 139.893 62.756 139.893 139.893 0 4.779-.243 9.595-.722 14.313a9.498 9.498 0 0 0 8.516 10.415c29.623 2.931 51.963 27.625 51.963 57.439-.002 31.831-25.899 57.726-57.729 57.726z"/></symbol><symbol viewBox="0 0 512 512" style="enable-background:new 0 0 512 512" xml:space="preserve" id="reset" xmlns="http://www.w3.org/2000/svg"><path d="m478.213 163.221-46.805-80.939c-5.163-9.515-16.896-13.824-27.648-9.963l-52.885 21.248c-10.069-7.232-20.629-13.376-31.531-18.304L311.301 19.2C309.957 8.256 300.443 0 289.221 0h-93.867c-11.221 0-20.715 8.256-22.059 19.008l-8.064 56.277c-10.581 4.821-20.949 10.859-31.467 18.325L80.731 72.299c-10.389-4.032-22.208.235-27.456 9.771l-46.87 81.087c-5.632 9.557-3.307 21.952 5.44 28.864l44.8 35.029c-.683 6.763-1.024 12.672-1.024 18.283s.341 11.52 1.045 18.261l-44.864 35.072c-8.555 6.763-10.901 18.752-5.461 28.779l46.805 80.96c5.205 9.493 16.896 13.845 27.669 9.941l52.885-21.248c10.069 7.232 20.629 13.376 31.531 18.304l8.043 56.085c1.365 10.923 10.88 19.179 22.08 19.179h73.515c3.989 0 7.637-2.219 9.429-5.675a10.69 10.69 0 0 0-.704-11.029c-16.341-23.381-24.96-50.795-24.96-79.232 0-13.269 1.941-26.56 5.781-39.509.981-3.328.299-6.933-1.856-9.643-2.155-2.709-5.461-4.16-8.939-4.053-1.152.064-2.283.213-5.184.576-53.056 0-96.213-43.157-96.213-96.213 0-53.077 43.157-96.235 96.213-96.235s96.213 43.157 96.021 97.984c-.149 1.131-.299 2.261-.363 3.413a10.753 10.753 0 0 0 4.053 8.939c2.731 2.155 6.336 2.795 9.643 1.856 20.757-6.187 41.216-7.68 64.384-3.456 2.837.512 5.952-.768 8.341-2.539 2.389-1.771 3.947-5.056 4.267-8 .043-.384.149-2.112.149-2.496 0-6.635-.469-12.907-1.024-18.283L472.752 192c8.555-6.741 10.923-18.731 5.461-28.779zm-68.096 50.71a10.689 10.689 0 0 0-4.011 9.728c.448 3.584.917 7.595 1.216 11.861-16.299-1.728-31.915-.832-47.531 2.325-4.117-61.12-55.147-109.589-117.291-109.589-64.811 0-117.547 52.736-117.547 117.568 0 62.165 48.469 113.195 109.589 117.291a158.949 158.949 0 0 0-3.179 31.552c0 26.176 6.336 51.605 18.432 74.496l-55.36-.512-8.917-62.187a10.705 10.705 0 0 0-6.528-8.363c-12.992-5.312-25.493-12.587-37.205-21.589a10.623 10.623 0 0 0-6.507-2.219c-1.344 0-2.688.256-3.968.768L71.769 397.93l-46.784-82.475 49.515-38.72a10.689 10.689 0 0 0 4.011-9.728c-1.067-8.491-1.557-15.381-1.557-21.675s.491-13.184 1.557-21.675a10.689 10.689 0 0 0-4.011-9.728l-49.664-40 48.021-81.792 58.432 23.467c3.477 1.387 7.424.875 10.389-1.365 12.587-9.451 24.789-16.533 37.291-21.653 3.499-1.451 5.995-4.608 6.528-8.363l9.856-62.891 94.784.704 8.917 62.187a10.705 10.705 0 0 0 6.528 8.363c12.971 5.312 25.493 12.565 37.205 21.589 2.965 2.304 6.955 2.837 10.475 1.429l59.541-22.848 46.827 82.453-49.513 38.722z"/><path d="M497.669 360.085c-8-32-43.925-82.752-106.347-82.752-64.704 0-117.333 52.629-117.333 117.333S326.619 512 391.323 512a10.658 10.658 0 0 0 10.667-10.667c0-5.888-4.779-10.667-10.667-10.667-52.928 0-96-43.072-96-96s43.072-96 96-96c52.16 0 80.235 44.864 85.653 66.581 1.408 5.717 7.232 9.195 12.928 7.765 5.717-1.428 9.195-7.209 7.765-12.927z"/><path d="M497.989 298.667c-5.888 0-10.667 4.779-10.667 10.667v53.333h-53.333c-5.888 0-10.667 4.779-10.667 10.667s4.779 10.667 10.667 10.667h64a10.658 10.658 0 0 0 10.667-10.667v-64c0-5.889-4.779-10.667-10.667-10.667z"/></symbol><symbol viewBox="0 0 64 64" style="enable-background:new 0 0 64 64" xml:space="preserve" id="river" xmlns="http://www.w3.org/2000/svg"><path d="m63.414 18-4.5-4.5 4.793-4.793-1.414-1.414-4.793 4.793-5.793-5.793a.999.999 0 0 0-1.414 0L47 9.586l-6.793-6.793a.999.999 0 0 0-1.414 0L28.5 13.086l-5.293-5.293a.999.999 0 0 0-1.414 0L18.5 11.086l-6.293-6.293a.999.999 0 0 0-1.414 0L5 10.586 1.707 7.293A1.002 1.002 0 0 0 1 7H0v2h.586l9 9H0v2h26.886c-2.037 1.498-4.097 3.129-6.018 5.026-2.092 2.067-5.593 5.526-5.344 9.04.106 1.501.975 2.999 2.383 4.11 1.977 1.561 4.298 2.406 6.543 3.224 2.61.95 5.076 1.848 6.945 3.778.986 1.018 1.334 1.968 1.064 2.904-.677 2.35-5.132 6.046-22.512 10.308l-.733.181C6.405 59.278 3.113 60 0 60v2c3.331 0 6.773-.752 9.701-1.488l.722-.178c14.907-3.655 22.744-7.481 23.958-11.697.479-1.662-.042-3.294-1.549-4.85-2.189-2.26-4.99-3.28-7.698-4.266-2.193-.798-4.264-1.553-5.988-2.914-.968-.764-1.561-1.742-1.627-2.683-.184-2.597 2.908-5.651 4.801-7.522 2.454-2.424 5.245-4.459 7.893-6.336L30.165 20h1.564a6.554 6.554 0 0 0-.073.086c-1.944 2.268-4.365 5.091-3.836 7.954.289 1.564 1.511 2.942 3.44 3.88 1.429.694 2.947 1.085 4.416 1.461.959.246 1.866.479 2.75.79a16.073 16.073 0 0 1 7.209 5.155c1.447 1.837 2.324 3.825 2.536 5.75.301 2.737-.727 5.217-1.814 7.843l-.088.214c-1.364 3.294-2.982 6.249-5.09 9.298l1.645 1.138c2.192-3.169 3.874-6.242 5.293-9.671l.088-.213c1.137-2.744 2.311-5.58 1.955-8.827-.253-2.297-1.274-4.638-2.953-6.769a18.11 18.11 0 0 0-8.117-5.804c-.967-.34-1.958-.595-2.917-.841-1.436-.369-2.792-.717-4.039-1.323-.778-.378-2.117-1.198-2.347-2.445-.355-1.923 1.808-4.447 3.388-6.289.431-.503.827-.968 1.153-1.388H64v-2l-.586.001zM11.5 6.914l5.586 5.586L12 17.586 6.414 12 11.5 6.914zm11 3 5.293 5.293a.999.999 0 0 0 1.414 0L39.5 4.914l6.793 6.793a.999.999 0 0 0 1.414 0L51 8.414 60.586 18H14.414L22.5 9.914z"/><path d="M28 8c2.206 0 4-1.794 4-4s-1.794-4-4-4-4 1.794-4 4 1.794 4 4 4zm0-6c1.103 0 2 .897 2 2s-.897 2-2 2-2-.897-2-2 .897-2 2-2zM49 26h-2v2.556A3.959 3.959 0 0 0 45 28v2c1.103 0 2 .897 2 2h2c0-1.103.897-2 2-2v-2c-.732 0-1.409.212-2 .556V26zM62 39h-2v2.556A3.959 3.959 0 0 0 58 41v2c1.103 0 2 .897 2 2h2c0-1.103.897-2 2-2v-2c-.732 0-1.409.212-2 .556V39zM57 58h-2v2.556A3.959 3.959 0 0 0 53 60v2c1.103 0 2 .897 2 2h2c0-1.103.897-2 2-2v-2c-.732 0-1.409.212-2 .556V58zM2 29h2c0-1.103.897-2 2-2v-2c-.732 0-1.409.212-2 .556V23H2v2.556A3.959 3.959 0 0 0 0 25v2c1.103 0 2 .897 2 2zM14 44v2.556A3.959 3.959 0 0 0 12 46v2c1.103 0 2 .897 2 2h2c0-1.103.897-2 2-2v-2c-.732 0-1.409.212-2 .556V44h-2zM53 33h2v2h-2zM57 33h2v2h-2zM61 33h2v2h-2zM2 37h2v2H2zM6 37h2v2H6zM10 37h2v2h-2zM24 28h2v2h-2zM32 60h2v2h-2zM27 62h2v2h-2zM11 62h2v2h-2zM21.429 30.956c-.152 1.136-.215 2.338.35 3.425.897 1.724 2.852 2.251 4.497 2.693 1.479.399 2.942.905 4.35 1.505.566.241 2.289.975 2.388 1.581l1.974-.322c-.276-1.693-2.343-2.573-3.577-3.099a35.344 35.344 0 0 0-4.686-1.616c-1.317-.354-2.679-.721-3.17-1.666-.309-.594-.251-1.426-.142-2.237l-1.984-.264zM45.18 47.008c.477-4.278-.865-7.774-3.683-9.591-1.062-.684-2.205-1.126-3.309-1.553l-.722 1.865c1.011.391 2.057.795 2.947 1.369 3.062 1.975 2.963 6.035 2.779 7.688l1.988.222zM37.309 53.215c.966-1.863 1.878-3.623 1.909-6.03.026-2.033-.578-3.962-1.704-5.433l-1.588 1.216c.854 1.115 1.312 2.604 1.292 4.191-.025 1.933-.757 3.346-1.685 5.136l1.776.92zM42.945 48.768c-.606 4.304-2.97 8.533-6.485 11.601l1.315 1.507c3.872-3.38 6.478-8.056 7.15-12.829l-1.98-.279zM32.468 53.588c-4.472 4.266-10.783 6.295-16.352 8.085l.612 1.904c5.773-1.856 12.316-3.96 17.121-8.542l-1.381-1.447z"/></symbol><symbol viewBox="0 0 512 512" style="enable-background:new 0 0 512 512" xml:space="preserve" id="thunder" xmlns="http://www.w3.org/2000/svg"><path d="M452.078 201.059c.109-2.426.165-4.857.165-7.279 0-87.615-71.281-158.894-158.894-158.894-36.324 0-70.515 11.933-98.876 34.51-24.612 19.593-42.945 46.298-52.465 76.038-11.174-3.905-23.102-5.981-35.397-5.981C47.826 139.454 0 187.279 0 246.064s47.826 106.61 106.61 106.61l156.962.05-29.749 112.458a9.502 9.502 0 0 0 16.985 7.854l83.697-120.363h100.767c42.308 0 76.728-34.42 76.728-76.727 0-36.487-25.182-67.206-59.922-74.887zM265.973 417.942l19.124-72.29a9.5 9.5 0 0 0-9.185-11.929h-34.456l30.768-95.373h72.09l-41.104 74.902a9.5 9.5 0 0 0 8.328 14.07h17.449l-63.014 90.62zm169.299-84.269h-87.554l7.25-10.427a9.499 9.499 0 0 0-7.8-14.924h-19.576l41.104-74.902a9.5 9.5 0 0 0-8.328-14.07h-95.06a9.503 9.503 0 0 0-9.042 6.584l-34.758 107.741H106.61c-48.308 0-87.609-39.301-87.609-87.609 0-48.308 39.301-87.609 87.609-87.609 30.647 0 58.554 15.6 74.651 41.73 2.752 4.468 8.607 5.858 13.072 3.107 4.468-2.752 5.858-8.605 3.107-13.072-9.633-15.637-22.75-28.165-38.024-36.868C177.098 94.43 231.13 53.89 293.349 53.89c77.138 0 139.893 62.756 139.893 139.893 0 4.774-.243 9.589-.722 14.314a9.494 9.494 0 0 0 8.516 10.413c29.623 2.932 51.963 27.625 51.963 57.439 0 31.828-25.896 57.724-57.727 57.724z"/></symbol><symbol fill="none" viewBox="0 0 1440 78" id="top-line" xmlns="http://www.w3.org/2000/svg"><path d="M452 58c313-47 561 12.107 561 12.107S1250 112 1440 0H0s139 105 452 58Z" fill="#fff"/></symbol><symbol viewBox="0 0 512 512" id="volume" xmlns="http://www.w3.org/2000/svg"><path d="M297.516 69.221a41.52 41.52 0 0 0-42.616 1.321l-140.357 78.791h-45.21a48.054 48.054 0 0 0-48 48v117.334a48.054 48.054 0 0 0 48 48h45.21L254.9 441.456a41.525 41.525 0 0 0 42.615 1.323A43.522 43.522 0 0 0 320 404.493V107.506a43.521 43.521 0 0 0-22.484-38.285zM42.666 314.667V197.333a26.7 26.7 0 0 1 26.667-26.667h37.333v170.667H69.333a26.7 26.7 0 0 1-26.667-26.666zm256 89.827a21.912 21.912 0 0 1-11.391 19.57 20.221 20.221 0 0 1-21.151-.749q-.261-.167-.53-.319L128 345.755v-179.51L265.6 89q.269-.151.53-.318a20.22 20.22 0 0 1 21.151-.749 21.913 21.913 0 0 1 11.391 19.57zM448.585 121.9a10.667 10.667 0 0 0-17.5 12.2 213.4 213.4 0 0 1 0 243.8 10.667 10.667 0 1 0 17.5 12.2 234.736 234.736 0 0 0 0-268.2zM365.6 174.113a10.667 10.667 0 0 0-2.637 14.853 117.344 117.344 0 0 1 0 134.068 10.666 10.666 0 1 0 17.49 12.214 138.673 138.673 0 0 0 0-158.5 10.668 10.668 0 0 0-14.853-2.635z"/></symbol><symbol viewBox="0 0 64 64" xml:space="preserve" id="waves" xmlns="http://www.w3.org/2000/svg"><path d="M16.514 24.154c5.327 0 10.651-1.835 16.045-5.503 9.075-6.175 20.53-6.173 29.893.008a.997.997 0 0 0 1.384-.292 1.013 1.013 0 0 0-.288-1.396c-10.049-6.63-22.352-6.628-32.109.008-10.035 6.826-19.81 6.827-29.88 0a.996.996 0 0 0-1.39.274 1.013 1.013 0 0 0 .273 1.399c5.412 3.668 10.744 5.502 16.072 5.502zM63.548 30.894c-10.05-6.631-22.353-6.628-32.109.008-10.036 6.828-19.81 6.827-29.88-.001a.994.994 0 0 0-1.389.275 1.013 1.013 0 0 0 .272 1.398c5.412 3.668 10.743 5.503 16.07 5.503 5.328 0 10.652-1.835 16.047-5.504 9.074-6.175 20.53-6.171 29.893.008a.997.997 0 0 0 1.385-.291 1.014 1.014 0 0 0-.29-1.396zM63.548 44.817c-10.05-6.63-22.352-6.626-32.109.008-10.034 6.828-19.808 6.83-29.88-.001a.995.995 0 0 0-1.389.274 1.013 1.013 0 0 0 .272 1.4C5.854 50.165 11.186 52 16.514 52c5.327 0 10.651-1.835 16.044-5.504 9.076-6.173 20.53-6.171 29.894.008a.997.997 0 0 0 1.385-.291 1.014 1.014 0 0 0-.29-1.396z"/></symbol><symbol viewBox="0 0 512 512" style="enable-background:new 0 0 512 512" xml:space="preserve" id="wind" xmlns="http://www.w3.org/2000/svg"><path d="M331.184 93.695c-32.598 0-59.117 26.519-59.117 59.116 0 5.38 4.362 9.742 9.742 9.742s9.742-4.362 9.742-9.742c0-21.853 17.779-39.632 39.633-39.632 21.854 0 39.633 17.778 39.633 39.632s-17.779 39.633-39.633 39.633H36.233c-5.38 0-9.742 4.362-9.742 9.742 0 5.38 4.362 9.742 9.742 9.742h294.951c32.597 0 59.117-26.52 59.117-59.117 0-32.596-26.519-59.116-59.117-59.116zM292.961 300.071H9.742c-5.38 0-9.742 4.362-9.742 9.742s4.362 9.742 9.742 9.742h283.219c21.854 0 39.633 17.78 39.633 39.633s-17.779 39.632-39.633 39.632-39.633-17.778-39.633-39.632c0-5.38-4.362-9.742-9.742-9.742s-9.742 4.362-9.742 9.742c0 32.597 26.519 59.116 59.117 59.116s59.117-26.519 59.117-59.116c0-32.598-26.519-59.117-59.117-59.117z"/><path d="M452.883 148.787c-32.598 0-59.117 26.52-59.117 59.117 0 5.38 4.362 9.742 9.742 9.742s9.742-4.362 9.742-9.742c0-21.854 17.779-39.633 39.633-39.633 21.854 0 39.633 17.78 39.633 39.633s-17.779 39.632-39.633 39.632H22.988c-5.38 0-9.742 4.362-9.742 9.742 0 5.38 4.362 9.742 9.742 9.742h429.895c32.598 0 59.117-26.519 59.117-59.116s-26.519-59.117-59.117-59.117z"/></symbol></svg>