<svg width="0" height="0" style="position:absolute"><symbol fill="none" viewBox="0 0 1440 116" id="bottom-line" xmlns="http://www.w3.org/2000/svg"><path d="M1013 70.196S765 11.016 452 58.08 0 0 0 0v115.158h1440V0c-190 112.154-427 70.196-427 70.196Z" fill="#fff"/></symbol><symbol viewBox="0 0 512 512" id="mute" xmlns="http://www.w3.org/2000/svg"><path d="M176.674 138.923 265.592 89c.178-.1.354-.206.527-.316a20.231 20.231 0 0 1 21.161-.748 21.915 21.915 0 0 1 11.383 19.571v133.72a10.667 10.667 0 1 0 21.333 0V107.509a43.524 43.524 0 0 0-22.474-38.285A41.536 41.536 0 0 0 254.9 70.54l-88.67 49.78a10.667 10.667 0 0 0 10.444 18.6zM448.585 121.9a10.667 10.667 0 0 0-17.5 12.205 213.512 213.512 0 0 1 14.355 220.063A10.667 10.667 0 1 0 464.374 364a234.848 234.848 0 0 0-15.788-242.1zM384 256a116.647 116.647 0 0 1-8.189 43.144A10.667 10.667 0 1 0 395.64 307a138.826 138.826 0 0 0-15.187-130.249 10.666 10.666 0 1 0-17.49 12.215A116.492 116.492 0 0 1 384 256zM70.711 92.281a10.667 10.667 0 1 0-13.423 16.581l49.994 40.471H69.329a48.054 48.054 0 0 0-48 48v117.334a48.054 48.054 0 0 0 48 48h45.211l140.36 78.792a41.537 41.537 0 0 0 42.624 1.317A43.525 43.525 0 0 0 320 404.49v-82.961l121.293 98.189a10.667 10.667 0 0 0 13.423-16.581zM42.662 314.667V197.333a26.7 26.7 0 0 1 26.667-26.667h37.338v170.667H69.329a26.7 26.7 0 0 1-26.667-26.666zm256 89.824a21.918 21.918 0 0 1-11.383 19.572 20.243 20.243 0 0 1-21.161-.748 9.787 9.787 0 0 0-.527-.316L128 345.758V166.243l.1-.057L298.662 304.26z"/></symbol><symbol viewBox="0 0 512 512" style="enable-background:new 0 0 512 512" xml:space="preserve" id="rain" xmlns="http://www.w3.org/2000/svg"><path d="M254.217 361.613a9.5 9.5 0 0 0-15.635 0c-6.156 8.913-36.869 54.455-36.869 75.77 0 24.64 20.045 44.686 44.686 44.686s44.686-20.045 44.686-44.686c0-21.315-30.711-66.857-36.868-75.77zm-7.816 101.455c-14.162 0-25.684-11.522-25.684-25.684 0-9.329 13.243-33.617 25.684-53.158 12.442 19.542 25.684 43.829 25.684 53.158 0 14.162-11.522 25.684-25.684 25.684zM331.854 182.933a9.5 9.5 0 0 0-15.634 0c-6.158 8.913-36.87 54.455-36.87 75.77 0 24.64 20.047 44.686 44.687 44.686 24.64 0 44.686-20.045 44.686-44.686 0-21.316-30.711-66.857-36.869-75.77zm-7.817 101.453c-14.163 0-25.685-11.522-25.685-25.684 0-9.329 13.243-33.617 25.685-53.158 12.442 19.542 25.684 43.829 25.684 53.158 0 14.162-11.522 25.684-25.684 25.684z"/><path d="M452.079 196.104c.109-2.426.165-4.857.165-7.279 0-87.615-71.281-158.894-158.894-158.894-36.324 0-70.515 11.934-98.875 34.511-24.612 19.593-42.929 46.303-52.451 76.043-11.179-3.908-23.112-5.985-35.413-5.985C47.826 134.5 0 182.326 0 241.11c0 58.785 47.826 106.61 106.61 106.61h13.564c6.421 16.815 22.711 28.794 41.756 28.794s35.334-11.979 41.756-28.794h231.588c42.308 0 76.727-34.42 76.727-76.728 0-36.489-25.182-67.208-59.922-74.888zM161.93 357.512c-14.162 0-25.684-11.522-25.684-25.684 0-9.329 13.243-33.617 25.684-53.158 12.442 19.542 25.684 43.829 25.684 53.158.001 14.164-11.522 25.684-25.684 25.684zm273.343-28.794H206.405c-2.588-22.34-30.785-64.157-36.657-72.659a9.503 9.503 0 0 0-15.636 0c-5.873 8.503-34.07 50.32-36.657 72.659h-10.843c-48.308 0-87.609-39.301-87.609-87.609 0-48.308 39.301-87.609 87.609-87.609 30.647 0 58.554 15.6 74.651 41.73 2.752 4.469 8.605 5.86 13.072 3.106 4.468-2.752 5.858-8.604 3.106-13.072-9.633-15.637-22.748-28.165-38.023-36.868 17.682-58.924 71.714-99.464 133.934-99.464 77.137 0 139.893 62.756 139.893 139.893 0 4.779-.243 9.595-.722 14.313a9.498 9.498 0 0 0 8.516 10.415c29.623 2.931 51.963 27.625 51.963 57.439-.002 31.831-25.899 57.726-57.729 57.726z"/></symbol><symbol viewBox="0 0 512 512" id="rain0" xmlns="http://www.w3.org/2000/svg"><path d="M239.902 0c-46.892 0-90.172 24.324-114.81 63.974C55.238 69.221 0 127.954 0 199.397c0 74.884 60.687 135.807 135.281 135.807H256l28.529-178.155L256 .957A135.396 135.396 0 0 0 239.902 0z" fill="#9de1f7"/><path d="M403.796 117.982a107.578 107.578 0 0 0-29.306 4.05C368.128 58.921 318.545 8.434 256 .957v334.247h147.799C463.462 335.202 512 286.48 512 226.593c0-59.888-48.54-108.611-108.204-108.611z" fill="#2fbfef"/><g fill="#9de1f7"><path d="M120.946 422.529h30.012V512h-30.012zM120.946 366.603h30.012v25.574h-30.012zM180.97 366.603h30.012v89.471H180.97zM180.97 486.426h30.012V512H180.97zM240.994 512H256l4.767-40.86L256 422.529h-15.006zM240.994 366.603v25.574H256l4.767-12.787L256 366.603z"/></g><path d="M301.018 366.603h30.012v89.471h-30.012zM301.018 486.426h30.012V512h-30.012zM361.042 422.529h30.012V512h-30.012zM361.042 366.603h30.012v25.574h-30.012zM256 422.529h15.006V512H256zM256 366.603h15.006v25.574H256z" fill="#2fbfef"/></symbol><symbol viewBox="0 0 512 512" style="enable-background:new 0 0 512 512" xml:space="preserve" id="reset" xmlns="http://www.w3.org/2000/svg"><path d="m478.213 163.221-46.805-80.939c-5.163-9.515-16.896-13.824-27.648-9.963l-52.885 21.248c-10.069-7.232-20.629-13.376-31.531-18.304L311.301 19.2C309.957 8.256 300.443 0 289.221 0h-93.867c-11.221 0-20.715 8.256-22.059 19.008l-8.064 56.277c-10.581 4.821-20.949 10.859-31.467 18.325L80.731 72.299c-10.389-4.032-22.208.235-27.456 9.771l-46.87 81.087c-5.632 9.557-3.307 21.952 5.44 28.864l44.8 35.029c-.683 6.763-1.024 12.672-1.024 18.283s.341 11.52 1.045 18.261l-44.864 35.072c-8.555 6.763-10.901 18.752-5.461 28.779l46.805 80.96c5.205 9.493 16.896 13.845 27.669 9.941l52.885-21.248c10.069 7.232 20.629 13.376 31.531 18.304l8.043 56.085c1.365 10.923 10.88 19.179 22.08 19.179h73.515c3.989 0 7.637-2.219 9.429-5.675a10.69 10.69 0 0 0-.704-11.029c-16.341-23.381-24.96-50.795-24.96-79.232 0-13.269 1.941-26.56 5.781-39.509.981-3.328.299-6.933-1.856-9.643-2.155-2.709-5.461-4.16-8.939-4.053-1.152.064-2.283.213-5.184.576-53.056 0-96.213-43.157-96.213-96.213 0-53.077 43.157-96.235 96.213-96.235s96.213 43.157 96.021 97.984c-.149 1.131-.299 2.261-.363 3.413a10.753 10.753 0 0 0 4.053 8.939c2.731 2.155 6.336 2.795 9.643 1.856 20.757-6.187 41.216-7.68 64.384-3.456 2.837.512 5.952-.768 8.341-2.539 2.389-1.771 3.947-5.056 4.267-8 .043-.384.149-2.112.149-2.496 0-6.635-.469-12.907-1.024-18.283L472.752 192c8.555-6.741 10.923-18.731 5.461-28.779zm-68.096 50.71a10.689 10.689 0 0 0-4.011 9.728c.448 3.584.917 7.595 1.216 11.861-16.299-1.728-31.915-.832-47.531 2.325-4.117-61.12-55.147-109.589-117.291-109.589-64.811 0-117.547 52.736-117.547 117.568 0 62.165 48.469 113.195 109.589 117.291a158.949 158.949 0 0 0-3.179 31.552c0 26.176 6.336 51.605 18.432 74.496l-55.36-.512-8.917-62.187a10.705 10.705 0 0 0-6.528-8.363c-12.992-5.312-25.493-12.587-37.205-21.589a10.623 10.623 0 0 0-6.507-2.219c-1.344 0-2.688.256-3.968.768L71.769 397.93l-46.784-82.475 49.515-38.72a10.689 10.689 0 0 0 4.011-9.728c-1.067-8.491-1.557-15.381-1.557-21.675s.491-13.184 1.557-21.675a10.689 10.689 0 0 0-4.011-9.728l-49.664-40 48.021-81.792 58.432 23.467c3.477 1.387 7.424.875 10.389-1.365 12.587-9.451 24.789-16.533 37.291-21.653 3.499-1.451 5.995-4.608 6.528-8.363l9.856-62.891 94.784.704 8.917 62.187a10.705 10.705 0 0 0 6.528 8.363c12.971 5.312 25.493 12.565 37.205 21.589 2.965 2.304 6.955 2.837 10.475 1.429l59.541-22.848 46.827 82.453-49.513 38.722z"/><path d="M497.669 360.085c-8-32-43.925-82.752-106.347-82.752-64.704 0-117.333 52.629-117.333 117.333S326.619 512 391.323 512a10.658 10.658 0 0 0 10.667-10.667c0-5.888-4.779-10.667-10.667-10.667-52.928 0-96-43.072-96-96s43.072-96 96-96c52.16 0 80.235 44.864 85.653 66.581 1.408 5.717 7.232 9.195 12.928 7.765 5.717-1.428 9.195-7.209 7.765-12.927z"/><path d="M497.989 298.667c-5.888 0-10.667 4.779-10.667 10.667v53.333h-53.333c-5.888 0-10.667 4.779-10.667 10.667s4.779 10.667 10.667 10.667h64a10.658 10.658 0 0 0 10.667-10.667v-64c0-5.889-4.779-10.667-10.667-10.667z"/></symbol><symbol viewBox="0 0 512 512" style="enable-background:new 0 0 512 512" xml:space="preserve" id="thunder" xmlns="http://www.w3.org/2000/svg"><path d="M452.078 201.059c.109-2.426.165-4.857.165-7.279 0-87.615-71.281-158.894-158.894-158.894-36.324 0-70.515 11.933-98.876 34.51-24.612 19.593-42.945 46.298-52.465 76.038-11.174-3.905-23.102-5.981-35.397-5.981C47.826 139.454 0 187.279 0 246.064s47.826 106.61 106.61 106.61l156.962.05-29.749 112.458a9.502 9.502 0 0 0 16.985 7.854l83.697-120.363h100.767c42.308 0 76.728-34.42 76.728-76.727 0-36.487-25.182-67.206-59.922-74.887zM265.973 417.942l19.124-72.29a9.5 9.5 0 0 0-9.185-11.929h-34.456l30.768-95.373h72.09l-41.104 74.902a9.5 9.5 0 0 0 8.328 14.07h17.449l-63.014 90.62zm169.299-84.269h-87.554l7.25-10.427a9.499 9.499 0 0 0-7.8-14.924h-19.576l41.104-74.902a9.5 9.5 0 0 0-8.328-14.07h-95.06a9.503 9.503 0 0 0-9.042 6.584l-34.758 107.741H106.61c-48.308 0-87.609-39.301-87.609-87.609 0-48.308 39.301-87.609 87.609-87.609 30.647 0 58.554 15.6 74.651 41.73 2.752 4.468 8.607 5.858 13.072 3.107 4.468-2.752 5.858-8.605 3.107-13.072-9.633-15.637-22.75-28.165-38.024-36.868C177.098 94.43 231.13 53.89 293.349 53.89c77.138 0 139.893 62.756 139.893 139.893 0 4.774-.243 9.589-.722 14.314a9.494 9.494 0 0 0 8.516 10.413c29.623 2.932 51.963 27.625 51.963 57.439 0 31.828-25.896 57.724-57.727 57.724z"/></symbol><symbol fill="none" viewBox="0 0 1440 78" id="top-line" xmlns="http://www.w3.org/2000/svg"><path d="M452 58c313-47 561 12.107 561 12.107S1250 112 1440 0H0s139 105 452 58Z" fill="#fff"/></symbol><symbol viewBox="0 0 512 512" id="volume" xmlns="http://www.w3.org/2000/svg"><path d="M297.516 69.221a41.52 41.52 0 0 0-42.616 1.321l-140.357 78.791h-45.21a48.054 48.054 0 0 0-48 48v117.334a48.054 48.054 0 0 0 48 48h45.21L254.9 441.456a41.525 41.525 0 0 0 42.615 1.323A43.522 43.522 0 0 0 320 404.493V107.506a43.521 43.521 0 0 0-22.484-38.285zM42.666 314.667V197.333a26.7 26.7 0 0 1 26.667-26.667h37.333v170.667H69.333a26.7 26.7 0 0 1-26.667-26.666zm256 89.827a21.912 21.912 0 0 1-11.391 19.57 20.221 20.221 0 0 1-21.151-.749q-.261-.167-.53-.319L128 345.755v-179.51L265.6 89q.269-.151.53-.318a20.22 20.22 0 0 1 21.151-.749 21.913 21.913 0 0 1 11.391 19.57zM448.585 121.9a10.667 10.667 0 0 0-17.5 12.2 213.4 213.4 0 0 1 0 243.8 10.667 10.667 0 1 0 17.5 12.2 234.736 234.736 0 0 0 0-268.2zM365.6 174.113a10.667 10.667 0 0 0-2.637 14.853 117.344 117.344 0 0 1 0 134.068 10.666 10.666 0 1 0 17.49 12.214 138.673 138.673 0 0 0 0-158.5 10.668 10.668 0 0 0-14.853-2.635z"/></symbol><symbol viewBox="0 0 512 512" style="enable-background:new 0 0 512 512" xml:space="preserve" id="wind" xmlns="http://www.w3.org/2000/svg"><path d="M331.184 93.695c-32.598 0-59.117 26.519-59.117 59.116 0 5.38 4.362 9.742 9.742 9.742s9.742-4.362 9.742-9.742c0-21.853 17.779-39.632 39.633-39.632 21.854 0 39.633 17.778 39.633 39.632s-17.779 39.633-39.633 39.633H36.233c-5.38 0-9.742 4.362-9.742 9.742 0 5.38 4.362 9.742 9.742 9.742h294.951c32.597 0 59.117-26.52 59.117-59.117 0-32.596-26.519-59.116-59.117-59.116zM292.961 300.071H9.742c-5.38 0-9.742 4.362-9.742 9.742s4.362 9.742 9.742 9.742h283.219c21.854 0 39.633 17.78 39.633 39.633s-17.779 39.632-39.633 39.632-39.633-17.778-39.633-39.632c0-5.38-4.362-9.742-9.742-9.742s-9.742 4.362-9.742 9.742c0 32.597 26.519 59.116 59.117 59.116s59.117-26.519 59.117-59.116c0-32.598-26.519-59.117-59.117-59.117z"/><path d="M452.883 148.787c-32.598 0-59.117 26.52-59.117 59.117 0 5.38 4.362 9.742 9.742 9.742s9.742-4.362 9.742-9.742c0-21.854 17.779-39.633 39.633-39.633 21.854 0 39.633 17.78 39.633 39.633s-17.779 39.632-39.633 39.632H22.988c-5.38 0-9.742 4.362-9.742 9.742 0 5.38 4.362 9.742 9.742 9.742h429.895c32.598 0 59.117-26.519 59.117-59.116s-26.519-59.117-59.117-59.117z"/></symbol></svg>